<mxfile host="app.diagrams.net" agent="Mozilla/5.0 (Windows NT 10.0; Win64; x64) AppleWebKit/537.36 (KHTML, like Gecko) Chrome/135.0.0.0 Safari/537.36" version="26.2.14">
  <diagram name="Страница — 1" id="LQEoc7Ox_GN1DkzEkNf7">
    <mxGraphModel dx="2253" dy="1912" grid="1" gridSize="10" guides="1" tooltips="1" connect="1" arrows="1" fold="1" page="1" pageScale="1" pageWidth="827" pageHeight="1169" math="0" shadow="0">
      <root>
        <mxCell id="0" />
        <mxCell id="1" parent="0" />
        <mxCell id="lm29R8KMJcdYnlwVV_AK-13" style="edgeStyle=orthogonalEdgeStyle;rounded=0;orthogonalLoop=1;jettySize=auto;html=1;entryX=1;entryY=0.5;entryDx=0;entryDy=0;" parent="1" source="lm29R8KMJcdYnlwVV_AK-1" target="lm29R8KMJcdYnlwVV_AK-12" edge="1">
          <mxGeometry relative="1" as="geometry" />
        </mxCell>
        <mxCell id="lm29R8KMJcdYnlwVV_AK-1" value="Дела&lt;div&gt;1. id&lt;/div&gt;&lt;div&gt;2. id вида дела&lt;/div&gt;&lt;div&gt;3. дата-время&lt;/div&gt;&lt;div&gt;5. id пользователя&lt;/div&gt;&lt;div&gt;5. описание&lt;/div&gt;&lt;div&gt;6. id пользователя&lt;/div&gt;&lt;div&gt;7. дата и время создания&lt;/div&gt;" style="rounded=0;whiteSpace=wrap;html=1;fillColor=#f8cecc;strokeColor=#b85450;" parent="1" vertex="1">
          <mxGeometry x="110" y="280" width="210" height="140" as="geometry" />
        </mxCell>
        <mxCell id="lm29R8KMJcdYnlwVV_AK-5" style="edgeStyle=orthogonalEdgeStyle;rounded=0;orthogonalLoop=1;jettySize=auto;html=1;entryX=0.5;entryY=0;entryDx=0;entryDy=0;" parent="1" source="lm29R8KMJcdYnlwVV_AK-2" target="lm29R8KMJcdYnlwVV_AK-3" edge="1">
          <mxGeometry relative="1" as="geometry" />
        </mxCell>
        <mxCell id="lm29R8KMJcdYnlwVV_AK-21" style="edgeStyle=orthogonalEdgeStyle;rounded=0;orthogonalLoop=1;jettySize=auto;html=1;entryX=1;entryY=0.5;entryDx=0;entryDy=0;" parent="1" source="lm29R8KMJcdYnlwVV_AK-2" target="lm29R8KMJcdYnlwVV_AK-20" edge="1">
          <mxGeometry relative="1" as="geometry">
            <Array as="points">
              <mxPoint x="340" y="150" />
              <mxPoint x="340" y="495" />
            </Array>
          </mxGeometry>
        </mxCell>
        <mxCell id="lm29R8KMJcdYnlwVV_AK-2" value="Важность&lt;div&gt;1. id&lt;br&gt;2. Важность(Важно, средне, мало)&lt;/div&gt;" style="rounded=0;whiteSpace=wrap;html=1;fillColor=#d5e8d4;strokeColor=#82b366;" parent="1" vertex="1">
          <mxGeometry x="110" y="120" width="210" height="60" as="geometry" />
        </mxCell>
        <mxCell id="lm29R8KMJcdYnlwVV_AK-6" style="edgeStyle=orthogonalEdgeStyle;rounded=0;orthogonalLoop=1;jettySize=auto;html=1;entryX=0.5;entryY=0;entryDx=0;entryDy=0;" parent="1" source="lm29R8KMJcdYnlwVV_AK-3" target="lm29R8KMJcdYnlwVV_AK-1" edge="1">
          <mxGeometry relative="1" as="geometry" />
        </mxCell>
        <mxCell id="lm29R8KMJcdYnlwVV_AK-3" value="Виды дел&lt;div&gt;1. id&lt;/div&gt;&lt;div&gt;2. id важности дела&lt;/div&gt;&lt;div&gt;3. вид дела&lt;/div&gt;" style="rounded=0;whiteSpace=wrap;html=1;fillColor=#d5e8d4;strokeColor=#82b366;" parent="1" vertex="1">
          <mxGeometry x="110" y="200" width="210" height="60" as="geometry" />
        </mxCell>
        <mxCell id="lm29R8KMJcdYnlwVV_AK-7" value="1. Книга рецептов&#xa;2. Добавить в корзину покупки&#xa;3. Планировщик задач на сегодня для каждого члена семьи&#xa;4. Напоминалки дат, только для семьи&#xa;5. Расписание детей&#xa;6. Напоминалки дат, для всех остальных&#xa;7. Уход за животными" style="text;whiteSpace=wrap;" parent="1" vertex="1">
          <mxGeometry x="160" y="-20" width="370" height="120" as="geometry" />
        </mxCell>
        <mxCell id="lm29R8KMJcdYnlwVV_AK-18" style="edgeStyle=orthogonalEdgeStyle;rounded=0;orthogonalLoop=1;jettySize=auto;html=1;entryX=0.5;entryY=1;entryDx=0;entryDy=0;" parent="1" source="lm29R8KMJcdYnlwVV_AK-8" target="lm29R8KMJcdYnlwVV_AK-16" edge="1">
          <mxGeometry relative="1" as="geometry" />
        </mxCell>
        <mxCell id="lm29R8KMJcdYnlwVV_AK-8" value="Книга рецептов&lt;div&gt;1. id&lt;/div&gt;&lt;div&gt;2. имя рецепта&lt;/div&gt;&lt;div&gt;3. json список продуктов&lt;br&gt;4. сам рецепт&lt;/div&gt;" style="rounded=0;whiteSpace=wrap;html=1;fillColor=#d5e8d4;strokeColor=#82b366;" parent="1" vertex="1">
          <mxGeometry x="360" y="200" width="210" height="70" as="geometry" />
        </mxCell>
        <mxCell id="lm29R8KMJcdYnlwVV_AK-9" value="Корзина&lt;div&gt;1. id&lt;/div&gt;&lt;div&gt;2. товар&lt;/div&gt;&lt;div&gt;3. количество&lt;/div&gt;" style="rounded=0;whiteSpace=wrap;html=1;fillColor=#fff2cc;strokeColor=#d6b656;" parent="1" vertex="1">
          <mxGeometry x="-130" y="120" width="210" height="60" as="geometry" />
        </mxCell>
        <mxCell id="lm29R8KMJcdYnlwVV_AK-14" style="edgeStyle=orthogonalEdgeStyle;rounded=0;orthogonalLoop=1;jettySize=auto;html=1;" parent="1" source="lm29R8KMJcdYnlwVV_AK-12" target="lm29R8KMJcdYnlwVV_AK-9" edge="1">
          <mxGeometry relative="1" as="geometry" />
        </mxCell>
        <mxCell id="lm29R8KMJcdYnlwVV_AK-12" value="Если дело покупки" style="rounded=0;whiteSpace=wrap;html=1;" parent="1" vertex="1">
          <mxGeometry x="-130" y="320" width="210" height="60" as="geometry" />
        </mxCell>
        <mxCell id="lm29R8KMJcdYnlwVV_AK-17" style="edgeStyle=orthogonalEdgeStyle;rounded=0;orthogonalLoop=1;jettySize=auto;html=1;entryX=0.5;entryY=0;entryDx=0;entryDy=0;exitX=0.5;exitY=0;exitDx=0;exitDy=0;" parent="1" source="lm29R8KMJcdYnlwVV_AK-16" target="lm29R8KMJcdYnlwVV_AK-9" edge="1">
          <mxGeometry relative="1" as="geometry" />
        </mxCell>
        <mxCell id="lm29R8KMJcdYnlwVV_AK-16" value="Нажать добавить продукты в корзину" style="rounded=0;whiteSpace=wrap;html=1;" parent="1" vertex="1">
          <mxGeometry x="360" y="110" width="210" height="70" as="geometry" />
        </mxCell>
        <mxCell id="lm29R8KMJcdYnlwVV_AK-20" value="Напоминалка даты&lt;br&gt;1. id&lt;div&gt;2. id важности&lt;/div&gt;&lt;div&gt;&lt;div&gt;2. дата&lt;/div&gt;&lt;div&gt;3. событие&lt;/div&gt;&lt;div&gt;4. описание&lt;/div&gt;&lt;/div&gt;" style="rounded=0;whiteSpace=wrap;html=1;fillColor=#f8cecc;strokeColor=#b85450;" parent="1" vertex="1">
          <mxGeometry x="110" y="450" width="210" height="90" as="geometry" />
        </mxCell>
        <mxCell id="lm29R8KMJcdYnlwVV_AK-24" style="edgeStyle=orthogonalEdgeStyle;rounded=0;orthogonalLoop=1;jettySize=auto;html=1;entryX=1;entryY=0.5;entryDx=0;entryDy=0;" parent="1" source="lm29R8KMJcdYnlwVV_AK-22" target="lm29R8KMJcdYnlwVV_AK-1" edge="1">
          <mxGeometry relative="1" as="geometry" />
        </mxCell>
        <mxCell id="lm29R8KMJcdYnlwVV_AK-22" value="3. Планировщик дел на сегодня для каждого члена семьи(дело и для кого оно)&#xa;5. Расписание детей(для кого Например Саша -&gt; кружок в 12 00)&#xa;7. Уход за животными(дело завести на стрижку)" style="text;whiteSpace=wrap;" parent="1" vertex="1">
          <mxGeometry x="380" y="320" width="370" height="120" as="geometry" />
        </mxCell>
        <mxCell id="lm29R8KMJcdYnlwVV_AK-23" value="4. Напоминалки дат, только для семьи&#xa;6. Напоминалки дат, для всех остальных&#xa;&#xa;продумать момент на счёт повторений" style="text;whiteSpace=wrap;" parent="1" vertex="1">
          <mxGeometry x="380" y="465" width="370" height="120" as="geometry" />
        </mxCell>
        <mxCell id="lm29R8KMJcdYnlwVV_AK-26" style="edgeStyle=orthogonalEdgeStyle;rounded=0;orthogonalLoop=1;jettySize=auto;html=1;entryX=0.989;entryY=0.626;entryDx=0;entryDy=0;entryPerimeter=0;" parent="1" source="lm29R8KMJcdYnlwVV_AK-23" target="lm29R8KMJcdYnlwVV_AK-20" edge="1">
          <mxGeometry relative="1" as="geometry" />
        </mxCell>
        <mxCell id="lm29R8KMJcdYnlwVV_AK-28" style="edgeStyle=orthogonalEdgeStyle;rounded=0;orthogonalLoop=1;jettySize=auto;html=1;entryX=0;entryY=0.5;entryDx=0;entryDy=0;" parent="1" source="lm29R8KMJcdYnlwVV_AK-27" target="lm29R8KMJcdYnlwVV_AK-9" edge="1">
          <mxGeometry relative="1" as="geometry" />
        </mxCell>
        <mxCell id="lm29R8KMJcdYnlwVV_AK-27" value="2. Добавить в корзину покупки" style="text;whiteSpace=wrap;" parent="1" vertex="1">
          <mxGeometry x="-360" y="130" width="210" height="40" as="geometry" />
        </mxCell>
        <mxCell id="lm29R8KMJcdYnlwVV_AK-30" style="edgeStyle=orthogonalEdgeStyle;rounded=0;orthogonalLoop=1;jettySize=auto;html=1;" parent="1" source="lm29R8KMJcdYnlwVV_AK-29" target="lm29R8KMJcdYnlwVV_AK-16" edge="1">
          <mxGeometry relative="1" as="geometry">
            <Array as="points">
              <mxPoint x="670" y="145" />
            </Array>
          </mxGeometry>
        </mxCell>
        <mxCell id="lm29R8KMJcdYnlwVV_AK-29" value="1. Книга рецептов" style="text;whiteSpace=wrap;" parent="1" vertex="1">
          <mxGeometry x="590" y="120" width="170" height="30" as="geometry" />
        </mxCell>
        <mxCell id="lm29R8KMJcdYnlwVV_AK-35" style="edgeStyle=orthogonalEdgeStyle;rounded=0;orthogonalLoop=1;jettySize=auto;html=1;entryX=0.5;entryY=1;entryDx=0;entryDy=0;" parent="1" source="lm29R8KMJcdYnlwVV_AK-31" target="lm29R8KMJcdYnlwVV_AK-1" edge="1">
          <mxGeometry relative="1" as="geometry">
            <Array as="points">
              <mxPoint x="215" y="440" />
            </Array>
          </mxGeometry>
        </mxCell>
        <mxCell id="lm29R8KMJcdYnlwVV_AK-31" value="Пользователи&lt;div&gt;1id&lt;/div&gt;&lt;div&gt;2. id роли&lt;br&gt;3. имя&lt;/div&gt;" style="rounded=0;whiteSpace=wrap;html=1;fillColor=#d5e8d4;strokeColor=#82b366;" parent="1" vertex="1">
          <mxGeometry x="-130" y="400" width="210" height="70" as="geometry" />
        </mxCell>
        <mxCell id="lm29R8KMJcdYnlwVV_AK-34" style="edgeStyle=orthogonalEdgeStyle;rounded=0;orthogonalLoop=1;jettySize=auto;html=1;entryX=0;entryY=0.5;entryDx=0;entryDy=0;" parent="1" source="lm29R8KMJcdYnlwVV_AK-32" target="lm29R8KMJcdYnlwVV_AK-31" edge="1">
          <mxGeometry relative="1" as="geometry" />
        </mxCell>
        <mxCell id="lm29R8KMJcdYnlwVV_AK-32" value="Роль&lt;div&gt;id&lt;br&gt;1. Родитель&lt;div&gt;2. Ребёнок&lt;br&gt;3. Питомец&lt;/div&gt;&lt;/div&gt;" style="rounded=0;whiteSpace=wrap;html=1;fillColor=#d5e8d4;strokeColor=#82b366;" parent="1" vertex="1">
          <mxGeometry x="-360" y="400" width="210" height="70" as="geometry" />
        </mxCell>
        <mxCell id="7WKAR1FsFvdeox_WHZgT-4" style="edgeStyle=orthogonalEdgeStyle;rounded=0;orthogonalLoop=1;jettySize=auto;html=1;entryX=0.25;entryY=0;entryDx=0;entryDy=0;" parent="1" source="7WKAR1FsFvdeox_WHZgT-2" target="lm29R8KMJcdYnlwVV_AK-9" edge="1">
          <mxGeometry relative="1" as="geometry" />
        </mxCell>
        <mxCell id="7WKAR1FsFvdeox_WHZgT-8" style="edgeStyle=orthogonalEdgeStyle;rounded=0;orthogonalLoop=1;jettySize=auto;html=1;entryX=1;entryY=0.5;entryDx=0;entryDy=0;" parent="1" source="7WKAR1FsFvdeox_WHZgT-2" target="lm29R8KMJcdYnlwVV_AK-8" edge="1">
          <mxGeometry relative="1" as="geometry" />
        </mxCell>
        <mxCell id="7WKAR1FsFvdeox_WHZgT-2" value="&lt;div&gt;Виды измерения&lt;/div&gt;&lt;div&gt;1. ид&lt;/div&gt;&lt;div&gt;2. имя&lt;/div&gt;&lt;div&gt;г кг см м мл л&lt;/div&gt;" style="rounded=0;whiteSpace=wrap;html=1;fillColor=#d5e8d4;strokeColor=#82b366;" parent="1" vertex="1">
          <mxGeometry x="-190" y="-80" width="210" height="70" as="geometry" />
        </mxCell>
        <mxCell id="7WKAR1FsFvdeox_WHZgT-6" value="в json будет лежать&#xa;" style="text;whiteSpace=wrap;" parent="1" vertex="1">
          <mxGeometry x="430" y="-40" width="170" height="30" as="geometry" />
        </mxCell>
        <mxCell id="7WKAR1FsFvdeox_WHZgT-9" value="Продукт&lt;div&gt;1. название&lt;/div&gt;&lt;div&gt;2. количество&lt;/div&gt;&lt;div&gt;3. id веса&lt;/div&gt;" style="rounded=0;whiteSpace=wrap;html=1;" parent="1" vertex="1">
          <mxGeometry x="600" y="30" width="210" height="60" as="geometry" />
        </mxCell>
        <mxCell id="rn1zpIXw3F2HWN3atjtw-2" value="Задачи&lt;div&gt;&lt;br&gt;&lt;/div&gt;&lt;div&gt;&lt;br&gt;ид&lt;br&gt;ид вида дела&lt;div&gt;ид пользователя исполнителя&lt;/div&gt;&lt;div&gt;ид пользователя над кем&lt;/div&gt;&lt;div&gt;название&lt;/div&gt;&lt;div&gt;&lt;div&gt;с дата время&lt;/div&gt;&lt;div&gt;до дата время не обязатально, если нет, то будет на целый день&lt;/div&gt;&lt;/div&gt;&lt;div&gt;описание&lt;/div&gt;&lt;div&gt;ид пользователя создатель&lt;/div&gt;&lt;div&gt;дата и время создания&lt;/div&gt;&lt;div&gt;повторения&lt;/div&gt;&lt;div&gt;&lt;br&gt;&lt;/div&gt;&lt;/div&gt;" style="rounded=0;whiteSpace=wrap;html=1;" parent="1" vertex="1">
          <mxGeometry x="110" y="570" width="400" height="250" as="geometry" />
        </mxCell>
      </root>
    </mxGraphModel>
  </diagram>
</mxfile>
